<svg width="209" height="308" viewBox="0 0 209 308" fill="none" xmlns="http://www.w3.org/2000/svg">
<g clip-path="url(#clip0_0_441)">
<mask id="mask0_0_441" style="mask-type:alpha" maskUnits="userSpaceOnUse" x="-1" y="-19" width="211" height="455">
<path d="M17.5411 -18.0234C7.66138 -18.0234 -0.347656 -10.0144 -0.347656 -0.134727V418.014C-0.347656 427.894 7.66138 435.903 17.5411 435.903H191.397C201.277 435.903 209.286 427.894 209.286 418.014V-0.134727C209.286 -10.0144 201.277 -18.0234 191.397 -18.0234H166.8C164.639 -18.0234 162.887 -16.9054 162.887 -15.2283V-11.3152C162.887 -5.75786 158.382 -1.25277 152.824 -1.25277H56.6726C51.1153 -1.25277 46.6102 -5.75786 46.6102 -11.3152V-15.2283C46.6102 -16.9054 44.8582 -18.0234 42.697 -18.0234H17.5411Z" fill="#FF0000"/>
</mask>
<g mask="url(#mask0_0_441)">
<rect x="-0.347656" y="-18.0234" width="209.633" height="453.926" fill="white"/>
<g clip-path="url(#clip1_0_441)">
<rect x="-0.335938" y="-18" width="209.667" height="454" fill="black"/>
<path d="M0.000244141 0.182262C0.000244141 -5.99353 5.00672 -11 11.1825 -11H197.818C203.994 -11 209 -5.99353 209 0.182266V436H0.000244141V0.182262Z" fill="#F3F8FF"/>
<g clip-path="url(#clip2_0_441)">
<mask id="mask1_0_441" style="mask-type:alpha" maskUnits="userSpaceOnUse" x="-1" y="-1" width="211" height="437">
<path d="M-0.335648 10.6547C-0.335648 4.47891 4.67082 -0.527588 10.8466 -0.527588H198.15C204.325 -0.527588 209.332 4.47888 209.332 10.6547V435.581H-0.335648V10.6547Z" fill="#EFF4FA"/>
</mask>
<g mask="url(#mask1_0_441)">
<circle cx="104.498" cy="7.99873" r="134.467" fill="#483FDD"/>
</g>
<mask id="mask2_0_441" style="mask-type:alpha" maskUnits="userSpaceOnUse" x="-30" y="-127" width="269" height="270">
<circle cx="104.498" cy="7.99873" r="134.467" fill="#483FDD"/>
</mask>
<g mask="url(#mask2_0_441)">
<path d="M49.0693 151.067C49.0497 118.681 49.0301 86.2789 49.0106 53.893C49.0056 45.7014 53.4539 39.526 60.8836 37.5026C62.3728 37.0879 63.9767 36.9049 65.5316 36.904C91.6379 36.8551 117.728 36.8228 143.818 36.8402C153.54 36.8343 160.484 43.8302 160.507 53.7263C160.544 88.8924 160.533 124.059 160.554 159.225C160.572 188.83 160.606 218.453 160.624 248.058C160.631 258.699 153.875 265.571 143.367 265.577C117.604 265.593 91.8416 265.608 66.079 265.624C55.931 265.63 49.1507 258.75 49.1445 248.44C49.1085 215.971 49.0889 183.519 49.0693 151.067ZM55.4202 151.527C55.4221 154.704 55.424 157.865 55.4259 161.042C55.4433 189.787 55.477 218.549 55.4617 247.294C55.4636 250.505 56.66 253.069 58.9691 255.136C61.6548 257.551 64.8961 258.277 68.4151 258.258C92.1481 258.211 115.881 258.213 139.614 258.199C140.924 258.198 142.233 258.23 143.542 258.147C148.322 257.863 152.183 254.832 153.424 250.197C153.832 248.691 153.946 247.069 153.945 245.497C153.939 182.695 153.885 119.909 153.847 57.1063C153.847 56.0472 153.862 54.9881 153.796 53.929C153.416 47.3759 150.32 43.8033 143.903 42.9797C141.006 42.6008 138.027 42.8012 135.098 42.7037C133.313 42.6386 132.528 43.5658 132.235 45.2539C131.599 48.9116 129.946 50.3192 126.198 50.3215C111.876 50.3632 97.5548 50.3719 83.2331 50.3474C79.2067 50.3333 77.4052 48.6464 76.9936 44.5922C76.8618 43.2519 76.4031 42.524 74.9464 42.5745C72.1967 42.6755 69.4469 42.5613 66.7136 42.745C61.4107 43.0957 57.1572 46.5735 55.9163 51.6216C55.4755 53.3926 55.3784 55.2792 55.3795 57.1162C55.3658 88.6084 55.4012 120.068 55.4202 151.527Z" fill="#151D51"/>
<path d="M55.4186 151.529C55.3996 120.07 55.3642 88.5946 55.3779 57.1354C55.3768 55.2985 55.4902 53.4119 55.9147 51.6409C57.1556 46.5928 61.4091 43.1315 66.712 42.7643C69.4453 42.5806 72.1951 42.6948 74.9448 42.5938C76.4015 42.5433 76.8602 43.2711 76.992 44.6115C77.4036 48.6657 79.2051 50.3691 83.2315 50.3667C97.5532 50.3912 111.875 50.3825 126.197 50.3408C129.945 50.3385 131.597 48.9309 132.233 45.2732C132.527 43.585 133.312 42.6578 135.096 42.723C138.026 42.8205 141.005 42.6201 143.902 42.999C150.318 43.8391 153.414 47.3952 153.794 53.9483C153.861 55.0073 153.845 56.0665 153.846 57.1256C153.883 119.928 153.921 182.714 153.943 245.517C153.944 247.089 153.814 248.711 153.422 250.217C152.181 254.851 148.32 257.882 143.541 258.166C142.231 258.25 140.922 258.217 139.613 258.218C115.88 258.232 92.1465 258.23 68.4135 258.278C64.8944 258.28 61.6696 257.554 58.9675 255.156C56.6584 253.088 55.4456 250.524 55.4601 247.314C55.4754 218.568 55.4417 189.807 55.4243 161.062C55.4224 157.884 55.4205 154.707 55.4186 151.529Z" fill="#5CD6C0"/>
<path d="M105.811 84.6903C111.008 84.6903 115.274 87.0003 117.784 91.1026C118.7 92.5995 120.218 93.7256 121.974 93.7256H125.346C128.092 93.7256 130.114 91.1159 128.979 88.6154C124.842 79.5044 116.603 74.0415 106.053 74.0415C90.952 74.0415 79.4847 86.0213 79.4847 100.825C79.4847 115.628 90.952 127.568 106.053 127.568C116.603 127.568 124.842 122.105 128.979 112.994C130.114 110.493 128.092 107.884 125.346 107.884H121.974C120.218 107.884 118.7 109.01 117.782 110.505C115.263 114.608 110.974 116.919 105.811 116.919C96.8068 116.919 90.5482 109.699 90.5482 100.784C90.5482 91.8701 96.8068 84.6903 105.811 84.6903Z" fill="#151D51"/>
<mask id="mask3_0_441" style="mask-type:alpha" maskUnits="userSpaceOnUse" x="68" y="65" width="73" height="36">
<rect x="68.9456" y="65.8872" width="71.5771" height="34.4295" fill="#C4C4C4"/>
</mask>
<g mask="url(#mask3_0_441)">
<path d="M105.811 84.6893C111.008 84.6893 115.274 86.9994 117.784 91.1016C118.7 92.5986 120.218 93.7246 121.974 93.7246H125.346C128.092 93.7246 130.114 91.1149 128.979 88.6145C124.842 79.5035 116.603 74.0405 106.053 74.0405C90.952 74.0405 79.4847 86.0204 79.4847 100.824C79.4847 115.627 90.952 127.567 106.053 127.567C116.603 127.567 124.842 122.104 128.979 112.993C130.114 110.492 128.092 107.883 125.346 107.883H121.974C120.218 107.883 118.7 109.009 117.782 110.505C115.263 114.607 110.974 116.918 105.811 116.918C96.8068 116.918 90.5482 109.698 90.5482 100.783C90.5482 91.8691 96.8068 84.6893 105.811 84.6893Z" fill="#483FDD"/>
</g>
<circle cx="4.39141" cy="4.39141" r="4.39141" transform="matrix(-1 0 0 1 102.149 23.2029)" fill="#DF723A"/>
<path d="M97.0707 22.2334L92.7933 30.9022L98.3675 35.3871" stroke="#DF723A" stroke-width="4.97201" stroke-linecap="round"/>
<path d="M100.894 35.4615C100.894 36.2818 100.229 36.9469 99.4087 36.9469C96.8835 36.9469 97.9233 36.2818 97.9233 35.4615C97.9233 34.6411 98.5883 33.9761 99.4087 33.9761C100.229 33.9761 100.894 34.6411 100.894 35.4615Z" fill="#DF723A"/>
<path d="M118.576 34.2693C118.576 35.0897 117.911 35.7547 117.091 35.7547C114.714 35.7547 115.605 35.0897 115.605 34.2693C115.605 33.449 116.27 32.7839 117.091 32.7839C117.911 32.7839 118.576 33.449 118.576 34.2693Z" fill="#DF723A"/>
<path d="M106.599 30.7312L108.196 34.5523L116.75 34.3242" stroke="#DF723A" stroke-width="4.97201" stroke-linecap="round"/>
<path d="M121.808 31.3145C121.774 30.2822 121.112 29.3758 120.139 29.0291L115.429 27.3507C113.566 26.6868 111.534 27.7578 111.029 29.6699C110.462 31.8132 112.078 33.9121 114.295 33.9121L119.295 33.9121C120.716 33.9121 121.855 32.735 121.808 31.3145Z" fill="#F5AC4C"/>
<path d="M113.213 30.7589L107.161 30.7588" stroke="#F5AC4C" stroke-width="10.6928" stroke-linecap="round"/>
<path d="M116.461 35.8435H106.88" stroke="#F5AC4C" stroke-width="4.97201" stroke-linecap="round"/>
<circle cx="121.395" cy="30.1883" r="0.911584" transform="rotate(-1.89564 121.395 30.1883)" fill="#151D51"/>
<path d="M110.296 25.6697C110.303 25.1162 110.696 24.6428 111.239 24.5333L115.393 23.6953C116.409 23.4904 117.355 24.2751 117.341 25.3114C117.329 26.2097 116.591 26.9283 115.693 26.9164L111.455 26.8604C110.806 26.8518 110.287 26.3187 110.296 25.6697Z" fill="#5579F0"/>
<rect x="111.27" y="26.7283" width="6.23262" height="0.971012" rx="0.485506" transform="rotate(0.757781 111.27 26.7283)" fill="#151D51"/>
<path d="M111.758 25.3093L112.449 29.6644L114.412 28.3226L111.758 25.3093Z" fill="#F5AC4C"/>
<path d="M108.877 28.4267C108.877 29.4206 109.084 32.7906 108.877 33.0322L107.223 37.29L105.91 37.29C103.269 37.29 98.9543 28.4267 98.9543 28.4267L93.9341 26.6723L91.0263 27.2417C91.0263 27.2417 88.2318 22.6009 93.1365 20.2377C98.0412 17.8745 105.118 24.032 107.223 27.2417C107.43 27.5523 108.877 27.4327 108.877 28.4267Z" fill="#F5AC4C"/>
<path d="M95.2864 12.8157C89.5977 13.2815 88.0799 18.7456 91.0178 22.6955L92.8115 20.7914C89.9419 16.2001 93.2658 13.5612 95.2864 12.8157Z" fill="#F5AC4C"/>
<path d="M102.719 32.9546C102.719 35.3799 104.481 37.346 106.654 37.346C108.828 37.346 108.257 35.3799 108.257 32.9546C108.257 30.5293 108.828 28.5632 106.654 28.5632C104.481 28.5632 102.719 30.5293 102.719 32.9546Z" fill="#F5AC4C"/>
<path d="M90.1729 24.8577C90.1729 27.283 92.139 30.789 94.5643 30.789C96.2753 31.4163 100.781 31.2452 98.9558 24.8577C98.9558 22.4324 96.9897 20.4663 94.5643 20.4663C92.139 20.4663 90.1729 22.4324 90.1729 24.8577Z" fill="#F5AC4C"/>
<path d="M92.5675 23.3748L93.1378 30.1044L90.3433 32.3287L94.4495 35.4654" stroke="#F5AC4C" stroke-width="4.97201" stroke-linecap="round" stroke-linejoin="round"/>
<path d="M97.6862 35.0023C97.3483 34.2548 96.4683 33.9228 95.7208 34.2607C93.4199 35.301 93.0292 35.5161 93.3671 36.2636C93.7051 37.0111 96.1971 37.3057 96.9447 36.9677C97.6922 36.6298 98.0242 35.7498 97.6862 35.0023Z" fill="#F5AC4C"/>
<path d="M65.2269 100.873L55.389 106.335L55.389 95.48L65.2269 100.873Z" fill="#483FDD"/>
<path d="M144.328 100.873L153.897 106.267L153.897 95.4116L144.328 100.873Z" fill="#483FDD"/>
<rect x="61.4925" y="100.055" width="87.7396" height="1.6349" fill="#483FDD"/>
</g>
</g>
<g clip-path="url(#clip3_0_441)">
<path d="M89.6278 176.936L92.2918 175.16C93.1558 174.584 94.9318 173.384 94.9318 170.792C94.9318 168.056 92.9398 166.376 89.8918 166.376C86.0278 166.376 84.1798 169.064 84.0838 171.392H87.2998C87.3718 170.24 88.1638 168.992 89.7238 168.992C90.8998 168.992 91.7398 169.784 91.7398 170.888C91.7398 172.112 90.6838 172.832 89.7718 173.456L87.2998 175.088C85.4038 176.336 84.0598 178.328 84.0598 180.968V182H94.8838V179.408H87.7318C87.9238 178.376 88.5718 177.656 89.6278 176.936ZM102.69 172.16C102.162 172.16 101.61 172.232 101.13 172.376L105.378 166.64H101.61L98.2976 171.512C97.3856 172.856 96.2816 174.608 96.2816 176.864C96.2816 180.128 98.5616 182.24 101.898 182.24C105.09 182.24 107.466 180.272 107.466 177.104C107.466 174.176 105.402 172.16 102.69 172.16ZM101.922 179.744C100.386 179.744 99.4256 178.568 99.4256 177.056C99.4256 175.568 100.362 174.44 101.946 174.44C103.506 174.44 104.442 175.568 104.442 177.056C104.442 178.568 103.482 179.744 101.922 179.744ZM112.938 173.768C114.93 173.768 116.61 172.088 116.61 170.072C116.61 168.056 114.93 166.4 112.938 166.4C110.922 166.4 109.266 168.056 109.266 170.072C109.266 172.088 110.922 173.768 112.938 173.768ZM124.29 166.64H121.002L110.634 182H113.922L124.29 166.64ZM112.914 171.464C112.146 171.464 111.57 170.864 111.57 170.072C111.57 169.28 112.146 168.704 112.914 168.704C113.73 168.704 114.306 169.28 114.306 170.072C114.306 170.864 113.73 171.464 112.914 171.464ZM122.13 182.24C124.122 182.24 125.826 180.584 125.826 178.568C125.826 176.552 124.122 174.872 122.13 174.872C120.138 174.872 118.458 176.552 118.458 178.568C118.458 180.584 120.138 182.24 122.13 182.24ZM122.13 179.936C121.362 179.936 120.786 179.36 120.786 178.568C120.786 177.776 121.362 177.176 122.13 177.176C122.946 177.176 123.498 177.776 123.498 178.568C123.498 179.36 122.946 179.936 122.13 179.936ZM56.8609 202.24C59.4049 202.24 61.5169 201.136 61.5169 198.664C61.5169 196.408 60.0289 195.448 57.9409 194.92L56.8129 194.632C55.6609 194.32 54.8449 194.104 54.8449 193.264C54.8449 192.496 55.4929 192.04 56.4289 192.04C57.5569 192.04 58.2289 192.568 58.3489 193.432H61.3009C61.1329 191.464 59.6449 189.76 56.4049 189.76C54.0289 189.76 51.9169 191.032 51.9169 193.432C51.9169 195.784 53.7409 196.432 55.3489 196.816L56.4769 197.104C57.7729 197.44 58.5889 197.824 58.5889 198.736C58.5889 199.6 57.7729 199.96 56.8369 199.96C55.6129 199.96 54.6529 199.456 54.4849 198.16H51.5329C51.7009 200.632 53.4769 202.24 56.8609 202.24ZM68.9708 202.24C72.0908 202.24 74.3708 200.536 74.7788 197.848H71.6828C71.2988 198.952 70.3628 199.576 68.9708 199.576C67.0028 199.576 65.7548 198.16 65.7548 196.048C65.7548 193.912 67.0988 192.424 68.9228 192.424C70.3628 192.424 71.3948 193.288 71.6588 194.392H74.7308C74.3468 191.248 71.7068 189.76 68.9228 189.76C65.4188 189.76 62.6828 192.28 62.6828 196.048C62.6828 199.672 65.2268 202.24 68.9708 202.24ZM87.5541 199.696C86.9781 199.696 86.6901 199.408 86.6901 198.784V194.392C86.6901 191.176 84.4101 189.76 81.6021 189.76C78.5301 189.76 76.6101 191.512 76.3701 194.008H79.4421C79.6341 192.928 80.3061 192.208 81.6021 192.208C82.7781 192.208 83.6181 192.856 83.6181 194.176V194.68L79.8741 195.064C77.6661 195.28 75.9141 196.408 75.9141 198.712C75.9141 201.088 77.7141 202.24 80.1621 202.24C82.0581 202.24 83.3061 201.592 84.1221 200.56C84.5301 201.664 85.4181 202 86.5461 202H87.8421V199.696H87.5541ZM83.6181 197.368C83.6181 199.264 81.9861 199.888 80.6901 199.888C79.7301 199.888 78.9861 199.552 78.9861 198.592C78.9861 197.656 79.8261 197.2 80.9301 197.08L83.6181 196.792V197.368ZM89.1623 202H92.2343V195.496C92.2343 193.36 93.5303 192.424 94.9943 192.424C96.4343 192.424 97.5623 193.384 97.5623 195.352V202H100.634V194.728C100.634 191.584 98.8103 189.76 95.9543 189.76C94.1543 189.76 93.1463 190.48 92.4263 191.416H92.2343L91.9703 190H89.1623V202ZM102.82 202H105.892V195.496C105.892 193.36 107.188 192.424 108.652 192.424C110.092 192.424 111.22 193.384 111.22 195.352V202H114.292V194.728C114.292 191.584 112.468 189.76 109.612 189.76C107.812 189.76 106.804 190.48 106.084 191.416H105.892L105.628 190H102.82V202ZM124.762 198.208C124.426 199.24 123.466 199.792 122.122 199.792C120.25 199.792 119.122 198.544 119.002 196.816H127.642C127.666 196.48 127.69 196.216 127.69 195.928C127.69 191.632 124.954 189.76 122.002 189.76C118.69 189.76 115.954 192.16 115.954 196.12C115.954 199.816 118.546 202.24 122.122 202.24C125.17 202.24 127.234 200.68 127.714 198.208H124.762ZM122.002 192.208C123.586 192.208 124.69 193.264 124.762 194.752H119.026C119.242 193.312 120.346 192.208 122.002 192.208ZM138.123 184.96V191.128C137.475 190.408 136.275 189.76 134.643 189.76C131.499 189.76 129.003 192.064 129.003 195.976C129.003 199.792 131.427 202.24 134.643 202.24C136.515 202.24 137.643 201.352 138.219 200.584H138.435L138.699 202H141.195V184.96H138.123ZM135.123 199.576C133.299 199.576 132.075 198.136 132.075 195.976C132.075 193.864 133.299 192.424 135.123 192.424C136.947 192.424 138.123 193.864 138.123 195.976C138.123 198.136 136.947 199.576 135.123 199.576ZM145.17 202.12C146.178 202.12 146.994 201.304 146.994 200.296C146.994 199.264 146.178 198.448 145.17 198.448C144.186 198.448 143.346 199.264 143.346 200.296C143.346 201.304 144.186 202.12 145.17 202.12ZM150.718 202.12C151.726 202.12 152.542 201.304 152.542 200.296C152.542 199.264 151.726 198.448 150.718 198.448C149.734 198.448 148.894 199.264 148.894 200.296C148.894 201.304 149.734 202.12 150.718 202.12ZM156.267 202.12C157.275 202.12 158.091 201.304 158.091 200.296C158.091 199.264 157.275 198.448 156.267 198.448C155.283 198.448 154.443 199.264 154.443 200.296C154.443 201.304 155.283 202.12 156.267 202.12Z" fill="#151D51"/>
</g>
</g>
<rect x="38.7266" y="219.126" width="126.73" height="54.3907" rx="5.43907" fill="white"/>
<path d="M85.0841 242.119C85.0841 242.759 84.8556 243.248 84.3987 243.588C83.9484 243.927 83.3838 244.097 82.705 244.097C81.9087 244.097 81.2887 243.901 80.8448 243.51C80.4075 243.111 80.1758 242.576 80.1497 241.904H81.4225C81.4551 242.25 81.5791 242.521 81.7945 242.716C82.0164 242.906 82.3199 243 82.705 243C83.0183 243 83.2761 242.932 83.4784 242.795C83.6808 242.651 83.7819 242.439 83.7819 242.158C83.7819 241.995 83.746 241.852 83.6742 241.728C83.609 241.604 83.5013 241.499 83.3512 241.414C83.2076 241.323 83.077 241.254 82.9595 241.209C82.8421 241.163 82.6822 241.111 82.4798 241.052L82.0882 240.935C80.9395 240.589 80.3651 239.952 80.3651 239.026C80.3651 238.425 80.5838 237.945 81.0211 237.586C81.4584 237.227 82.0131 237.048 82.6854 237.048C83.3773 237.048 83.9353 237.237 84.3596 237.616C84.7838 237.988 85.0057 238.471 85.0253 239.065H83.7526C83.7199 238.784 83.6155 238.562 83.4393 238.399C83.263 238.229 83.015 238.144 82.6952 238.144C82.3884 238.144 82.1404 238.219 81.9511 238.37C81.7619 238.52 81.6672 238.719 81.6672 238.967C81.6672 239.104 81.6966 239.228 81.7553 239.339C81.8206 239.443 81.9185 239.535 82.049 239.613C82.1796 239.685 82.2971 239.74 82.4015 239.779C82.5125 239.819 82.6593 239.868 82.8421 239.926L83.1847 240.034C83.3544 240.086 83.5045 240.138 83.6351 240.191C83.7721 240.243 83.9353 240.328 84.1246 240.445C84.3204 240.556 84.4803 240.683 84.6043 240.827C84.7349 240.964 84.8458 241.147 84.9372 241.375C85.0351 241.597 85.0841 241.845 85.0841 242.119ZM88.0923 244.097C87.3286 244.097 86.7086 243.862 86.2321 243.392C85.7622 242.922 85.5272 242.315 85.5272 241.571C85.5272 240.814 85.7687 240.197 86.2517 239.721C86.7412 239.244 87.3482 239.006 88.0727 239.006C88.6797 239.006 89.2084 239.169 89.6587 239.495C90.1091 239.822 90.3702 240.288 90.442 240.895H89.1888C89.1301 240.661 88.9995 240.468 88.7972 240.318C88.6014 240.168 88.3599 240.093 88.0727 240.093C87.7007 240.093 87.3906 240.233 87.1426 240.514C86.9011 240.788 86.7804 241.14 86.7804 241.571C86.7804 242.002 86.8979 242.351 87.1328 242.619C87.3743 242.88 87.6941 243.01 88.0923 243.01C88.6666 243.01 89.0354 242.775 89.1986 242.305H90.4615C90.3767 242.854 90.1189 243.291 89.6881 243.617C89.2639 243.937 88.7319 244.097 88.0923 244.097ZM95.5676 243.059H95.6851V243.999H95.1565C94.6408 243.999 94.3112 243.803 94.1676 243.412C93.8086 243.868 93.2702 244.097 92.5522 244.097C92.0301 244.097 91.6091 243.976 91.2893 243.735C90.976 243.487 90.8193 243.128 90.8193 242.658C90.8193 242.214 90.9662 241.868 91.2599 241.62C91.5601 241.365 91.9517 241.215 92.4347 241.17L93.962 241.013V240.807C93.962 240.546 93.887 240.347 93.7369 240.21C93.5867 240.073 93.3877 240.005 93.1396 240.005C92.6371 240.005 92.3434 240.249 92.2585 240.739H91.0054C91.0576 240.217 91.273 239.799 91.6515 239.486C92.0301 239.166 92.5261 239.006 93.1396 239.006C93.7532 239.006 94.2525 239.166 94.6376 239.486C95.0227 239.799 95.2152 240.269 95.2152 240.895V242.687C95.2152 242.935 95.3327 243.059 95.5676 243.059ZM93.962 242.109V241.875L92.8655 241.992C92.3368 242.051 92.0725 242.256 92.0725 242.609C92.0725 242.961 92.3042 243.137 92.7676 243.137C93.0809 243.137 93.3583 243.056 93.5998 242.893C93.8413 242.723 93.962 242.462 93.962 242.109ZM96.1183 243.999V239.104H97.2638L97.3715 239.681H97.4498C97.7958 239.231 98.2755 239.006 98.889 239.006C99.4764 239.006 99.9398 239.185 100.279 239.544C100.625 239.903 100.798 240.399 100.798 241.033V243.999H99.545V241.287C99.545 240.902 99.4471 240.608 99.2513 240.406C99.0554 240.197 98.8042 240.093 98.4974 240.093C98.1776 240.093 97.91 240.2 97.6946 240.416C97.4792 240.625 97.3715 240.935 97.3715 241.346V243.999H96.1183ZM101.584 243.999V239.104H102.73L102.838 239.681H102.916C103.262 239.231 103.742 239.006 104.355 239.006C104.942 239.006 105.406 239.185 105.745 239.544C106.091 239.903 106.264 240.399 106.264 241.033V243.999H105.011V241.287C105.011 240.902 104.913 240.608 104.717 240.406C104.522 240.197 104.27 240.093 103.963 240.093C103.644 240.093 103.376 240.2 103.161 240.416C102.945 240.625 102.838 240.935 102.838 241.346V243.999H101.584ZM107.687 238.477C107.478 238.477 107.295 238.402 107.138 238.252C106.988 238.102 106.913 237.926 106.913 237.723C106.913 237.508 106.988 237.329 107.138 237.185C107.295 237.035 107.478 236.96 107.687 236.96C107.895 236.96 108.072 237.035 108.215 237.185C108.365 237.329 108.44 237.508 108.44 237.723C108.44 237.926 108.365 238.102 108.215 238.252C108.065 238.402 107.889 238.477 107.687 238.477ZM107.06 243.999V239.104H108.313V243.999H107.06ZM109.103 243.999V239.104H110.249L110.356 239.681H110.435C110.781 239.231 111.26 239.006 111.874 239.006C112.461 239.006 112.925 239.185 113.264 239.544C113.61 239.903 113.783 240.399 113.783 241.033V243.999H112.53V241.287C112.53 240.902 112.432 240.608 112.236 240.406C112.04 240.197 111.789 240.093 111.482 240.093C111.163 240.093 110.895 240.2 110.68 240.416C110.464 240.625 110.356 240.935 110.356 241.346V243.999H109.103ZM119.136 239.241C118.947 239.437 118.682 239.616 118.343 239.779C118.552 240.047 118.656 240.354 118.656 240.7C118.656 241.209 118.464 241.61 118.079 241.904C117.694 242.198 117.201 242.344 116.6 242.344C116.307 242.344 116.032 242.309 115.778 242.237C115.621 242.315 115.543 242.423 115.543 242.56C115.543 242.808 115.758 242.932 116.189 242.932H117.149C117.723 242.932 118.163 243.062 118.47 243.323C118.777 243.578 118.93 243.93 118.93 244.381C118.93 244.903 118.725 245.311 118.314 245.605C117.902 245.905 117.341 246.055 116.63 246.055C115.899 246.055 115.331 245.898 114.926 245.585C114.528 245.278 114.303 244.887 114.251 244.41L114.995 243.754C114.623 243.552 114.437 243.252 114.437 242.854C114.437 242.455 114.655 242.136 115.093 241.894C114.708 241.594 114.515 241.196 114.515 240.7C114.515 240.21 114.698 239.805 115.063 239.486C115.435 239.166 115.928 239.006 116.542 239.006C116.972 239.006 117.351 239.088 117.677 239.251C118.023 239.074 118.304 238.843 118.519 238.556L119.136 239.241ZM116.6 241.434C116.861 241.434 117.07 241.365 117.227 241.228C117.384 241.085 117.462 240.902 117.462 240.68C117.462 240.452 117.384 240.266 117.227 240.122C117.077 239.978 116.868 239.907 116.6 239.907C116.333 239.907 116.117 239.978 115.954 240.122C115.791 240.266 115.709 240.452 115.709 240.68C115.709 240.902 115.791 241.085 115.954 241.228C116.117 241.365 116.333 241.434 116.6 241.434ZM117.736 244.449C117.736 244.26 117.664 244.123 117.521 244.038C117.377 243.953 117.201 243.911 116.992 243.911H116.101L115.455 244.459C115.514 244.648 115.641 244.805 115.837 244.929C116.039 245.053 116.307 245.115 116.639 245.115C116.959 245.115 117.22 245.056 117.423 244.939C117.632 244.828 117.736 244.665 117.736 244.449ZM123.777 238.644V239.104H125.021V240.093H123.777V243.999H122.524V240.093H121.496V239.104H122.524V238.575C122.524 238.079 122.671 237.701 122.965 237.439C123.265 237.178 123.663 237.048 124.159 237.048C124.453 237.048 124.766 237.103 125.099 237.214L124.884 238.125C124.733 238.073 124.567 238.046 124.384 238.046C123.98 238.046 123.777 238.246 123.777 238.644ZM127.707 244.097C126.97 244.097 126.353 243.859 125.857 243.382C125.367 242.899 125.123 242.286 125.123 241.542C125.123 240.798 125.367 240.191 125.857 239.721C126.346 239.244 126.963 239.006 127.707 239.006C128.451 239.006 129.068 239.244 129.558 239.721C130.047 240.191 130.292 240.798 130.292 241.542C130.292 242.292 130.047 242.906 129.558 243.382C129.068 243.859 128.451 244.097 127.707 244.097ZM127.707 243.01C128.105 243.01 128.428 242.87 128.677 242.589C128.925 242.309 129.049 241.959 129.049 241.542C129.049 241.13 128.925 240.788 128.677 240.514C128.428 240.233 128.105 240.093 127.707 240.093C127.309 240.093 126.986 240.233 126.738 240.514C126.497 240.788 126.376 241.13 126.376 241.542C126.376 241.959 126.5 242.309 126.748 242.589C126.996 242.87 127.316 243.01 127.707 243.01ZM130.898 243.999V239.104H132.034L132.151 239.799H132.229C132.399 239.525 132.588 239.326 132.797 239.202C133.006 239.071 133.303 239.006 133.688 239.006H134.041V240.259C133.884 240.233 133.708 240.22 133.512 240.22C133.022 240.22 132.673 240.367 132.464 240.661C132.255 240.948 132.151 241.3 132.151 241.718V243.999H130.898ZM82.3721 255.097C81.3539 255.097 80.8448 254.62 80.8448 253.668V251.093H79.7973V250.104H80.1301C80.4304 250.104 80.6425 250.048 80.7665 249.937C80.8971 249.82 80.9623 249.627 80.9623 249.36V248.772H82.098V250.104H83.3805V251.093H82.098V253.501C82.098 253.612 82.1078 253.707 82.1274 253.785C82.1535 253.863 82.2187 253.938 82.3232 254.01C82.4276 254.075 82.5712 254.108 82.754 254.108C82.9041 254.108 83.064 254.085 83.2337 254.04V254.989C82.9204 255.061 82.6332 255.097 82.3721 255.097ZM83.8381 254.999V250.104H84.9738L85.0913 250.799H85.1696C85.3393 250.525 85.5286 250.326 85.7375 250.202C85.9463 250.071 86.2433 250.006 86.6284 250.006H86.9808V251.259C86.8242 251.233 86.648 251.22 86.4522 251.22C85.9626 251.22 85.6135 251.367 85.4046 251.661C85.1957 251.948 85.0913 252.3 85.0913 252.718V254.999H83.8381ZM91.7624 254.059H91.8799V254.999H91.3512C90.8356 254.999 90.506 254.803 90.3624 254.412C90.0034 254.868 89.465 255.097 88.747 255.097C88.2248 255.097 87.8039 254.976 87.484 254.735C87.1708 254.487 87.0141 254.128 87.0141 253.658C87.0141 253.214 87.161 252.868 87.4547 252.62C87.7549 252.365 88.1465 252.215 88.6295 252.17L90.1568 252.013V251.807C90.1568 251.546 90.0817 251.347 89.9316 251.21C89.7815 251.073 89.5824 251.005 89.3344 251.005C88.8318 251.005 88.5381 251.249 88.4533 251.739H87.2001C87.2523 251.217 87.4677 250.799 87.8463 250.486C88.2248 250.166 88.7209 250.006 89.3344 250.006C89.9479 250.006 90.4473 250.166 90.8323 250.486C91.2174 250.799 91.41 251.269 91.41 251.895V253.687C91.41 253.935 91.5275 254.059 91.7624 254.059ZM90.1568 253.109V252.875L89.0603 252.992C88.5316 253.051 88.2673 253.256 88.2673 253.609C88.2673 253.961 88.499 254.137 88.9624 254.137C89.2757 254.137 89.5531 254.056 89.7946 253.893C90.0361 253.723 90.1568 253.462 90.1568 253.109ZM94.5977 255.097C93.8341 255.097 93.214 254.862 92.7375 254.392C92.2676 253.922 92.0326 253.315 92.0326 252.571C92.0326 251.814 92.2741 251.197 92.7571 250.721C93.2466 250.244 93.8536 250.006 94.5781 250.006C95.1851 250.006 95.7138 250.169 96.1642 250.495C96.6145 250.822 96.8756 251.288 96.9474 251.895H95.6942C95.6355 251.661 95.5049 251.468 95.3026 251.318C95.1068 251.168 94.8653 251.093 94.5781 251.093C94.2061 251.093 93.8961 251.233 93.648 251.514C93.4065 251.788 93.2858 252.14 93.2858 252.571C93.2858 253.002 93.4033 253.351 93.6383 253.619C93.8797 253.88 94.1996 254.01 94.5977 254.01C95.1721 254.01 95.5408 253.775 95.704 253.305H96.967C96.8821 253.854 96.6243 254.291 96.1935 254.617C95.7693 254.937 95.2373 255.097 94.5977 255.097ZM102.122 250.104L100.125 252.052L102.122 254.999H100.742L99.2833 252.875L98.7742 253.364V254.999H97.521V248.048H98.7742V251.798H98.8525L100.615 250.104H102.122ZM103.078 249.477C102.869 249.477 102.687 249.402 102.53 249.252C102.38 249.102 102.305 248.926 102.305 248.723C102.305 248.508 102.38 248.329 102.53 248.185C102.687 248.035 102.869 247.96 103.078 247.96C103.287 247.96 103.463 248.035 103.607 248.185C103.757 248.329 103.832 248.508 103.832 248.723C103.832 248.926 103.757 249.102 103.607 249.252C103.457 249.402 103.281 249.477 103.078 249.477ZM102.452 254.999V250.104H103.705V254.999H102.452ZM104.495 254.999V250.104H105.64L105.748 250.681H105.826C106.172 250.231 106.652 250.006 107.266 250.006C107.853 250.006 108.316 250.185 108.656 250.544C109.002 250.903 109.175 251.399 109.175 252.033V254.999H107.922V252.287C107.922 251.902 107.824 251.608 107.628 251.406C107.432 251.197 107.181 251.093 106.874 251.093C106.554 251.093 106.287 251.2 106.071 251.416C105.856 251.625 105.748 251.935 105.748 252.346V254.999H104.495ZM114.528 250.241C114.338 250.437 114.074 250.616 113.735 250.779C113.944 251.047 114.048 251.354 114.048 251.7C114.048 252.209 113.855 252.61 113.47 252.904C113.085 253.198 112.592 253.344 111.992 253.344C111.698 253.344 111.424 253.309 111.17 253.237C111.013 253.315 110.935 253.423 110.935 253.56C110.935 253.808 111.15 253.932 111.581 253.932H112.54C113.115 253.932 113.555 254.062 113.862 254.323C114.169 254.578 114.322 254.93 114.322 255.381C114.322 255.903 114.116 256.311 113.705 256.605C113.294 256.905 112.733 257.055 112.021 257.055C111.29 257.055 110.722 256.898 110.318 256.585C109.92 256.278 109.694 255.887 109.642 255.41L110.386 254.754C110.014 254.552 109.828 254.252 109.828 253.854C109.828 253.455 110.047 253.136 110.484 252.894C110.099 252.594 109.907 252.196 109.907 251.7C109.907 251.21 110.089 250.805 110.455 250.486C110.827 250.166 111.32 250.006 111.933 250.006C112.364 250.006 112.743 250.088 113.069 250.251C113.415 250.074 113.695 249.843 113.911 249.556L114.528 250.241ZM111.992 252.434C112.253 252.434 112.462 252.365 112.619 252.228C112.775 252.085 112.854 251.902 112.854 251.68C112.854 251.452 112.775 251.266 112.619 251.122C112.468 250.978 112.26 250.907 111.992 250.907C111.724 250.907 111.509 250.978 111.346 251.122C111.183 251.266 111.101 251.452 111.101 251.68C111.101 251.902 111.183 252.085 111.346 252.228C111.509 252.365 111.724 252.434 111.992 252.434ZM113.128 255.449C113.128 255.26 113.056 255.123 112.912 255.038C112.769 254.953 112.592 254.911 112.384 254.911H111.493L110.846 255.459C110.905 255.648 111.033 255.805 111.228 255.929C111.431 256.053 111.698 256.115 112.031 256.115C112.351 256.115 112.612 256.056 112.814 255.939C113.023 255.828 113.128 255.665 113.128 255.449ZM121.802 254.059H121.92V254.999H121.391C120.876 254.999 120.546 254.803 120.402 254.412C120.043 254.868 119.505 255.097 118.787 255.097C118.265 255.097 117.844 254.976 117.524 254.735C117.211 254.487 117.054 254.128 117.054 253.658C117.054 253.214 117.201 252.868 117.495 252.62C117.795 252.365 118.187 252.215 118.67 252.17L120.197 252.013V251.807C120.197 251.546 120.122 251.347 119.972 251.21C119.822 251.073 119.622 251.005 119.374 251.005C118.872 251.005 118.578 251.249 118.493 251.739H117.24C117.292 251.217 117.508 250.799 117.886 250.486C118.265 250.166 118.761 250.006 119.374 250.006C119.988 250.006 120.487 250.166 120.872 250.486C121.257 250.799 121.45 251.269 121.45 251.895V253.687C121.45 253.935 121.568 254.059 121.802 254.059ZM120.197 253.109V252.875L119.1 252.992C118.572 253.051 118.307 253.256 118.307 253.609C118.307 253.961 118.539 254.137 119.002 254.137C119.316 254.137 119.593 254.056 119.835 253.893C120.076 253.723 120.197 253.462 120.197 253.109ZM125.026 250.006C125.692 250.006 126.24 250.241 126.671 250.711C127.108 251.181 127.327 251.798 127.327 252.561C127.327 253.338 127.108 253.955 126.671 254.412C126.233 254.868 125.685 255.097 125.026 255.097C124.412 255.097 123.939 254.911 123.606 254.539V256.957H122.353V250.104H123.371L123.479 250.681H123.567C123.907 250.231 124.393 250.006 125.026 250.006ZM123.939 253.609C124.161 253.876 124.458 254.01 124.83 254.01C125.202 254.01 125.502 253.876 125.731 253.609C125.959 253.341 126.073 252.992 126.073 252.561C126.073 252.124 125.959 251.771 125.731 251.504C125.502 251.23 125.202 251.093 124.83 251.093C124.458 251.093 124.161 251.226 123.939 251.494C123.717 251.762 123.606 252.117 123.606 252.561C123.606 252.992 123.717 253.341 123.939 253.609ZM130.607 250.006C131.272 250.006 131.821 250.241 132.251 250.711C132.689 251.181 132.907 251.798 132.907 252.561C132.907 253.338 132.689 253.955 132.251 254.412C131.814 254.868 131.266 255.097 130.607 255.097C129.993 255.097 129.52 254.911 129.187 254.539V256.957H127.934V250.104H128.952L129.06 250.681H129.148C129.487 250.231 129.974 250.006 130.607 250.006ZM129.52 253.609C129.742 253.876 130.039 254.01 130.411 254.01C130.783 254.01 131.083 253.876 131.312 253.609C131.54 253.341 131.654 252.992 131.654 252.561C131.654 252.124 131.54 251.771 131.312 251.504C131.083 251.23 130.783 251.093 130.411 251.093C130.039 251.093 129.742 251.226 129.52 251.494C129.298 251.762 129.187 252.117 129.187 252.561C129.187 252.992 129.298 253.341 129.52 253.609ZM135.436 255.097C134.764 255.097 134.242 254.95 133.87 254.656C133.498 254.356 133.296 253.948 133.263 253.433H134.467C134.532 253.922 134.852 254.167 135.427 254.167C135.635 254.167 135.805 254.128 135.936 254.049C136.073 253.965 136.141 253.837 136.141 253.668C136.141 253.491 136.07 253.358 135.926 253.266C135.789 253.168 135.573 253.08 135.28 253.002L134.82 252.884C134.624 252.839 134.454 252.79 134.311 252.737C134.173 252.679 134.03 252.6 133.88 252.502C133.73 252.398 133.615 252.264 133.537 252.101C133.459 251.931 133.42 251.732 133.42 251.504C133.42 251.034 133.596 250.668 133.948 250.407C134.301 250.14 134.735 250.006 135.25 250.006C135.877 250.006 136.357 250.146 136.69 250.427C137.022 250.708 137.208 251.067 137.248 251.504H136.043C135.991 251.125 135.73 250.936 135.26 250.936C135.064 250.936 134.908 250.982 134.79 251.073C134.673 251.158 134.614 251.279 134.614 251.435C134.614 251.592 134.673 251.706 134.79 251.778C134.914 251.843 135.123 251.915 135.417 251.993L135.877 252.111C136.347 252.228 136.706 252.405 136.954 252.64C137.208 252.875 137.336 253.207 137.336 253.638C137.336 254.121 137.156 254.487 136.797 254.735C136.445 254.976 135.991 255.097 135.436 255.097ZM138.692 255.048C138.489 255.048 138.313 254.976 138.163 254.833C138.019 254.682 137.948 254.506 137.948 254.304C137.948 254.095 138.019 253.919 138.163 253.775C138.313 253.625 138.489 253.55 138.692 253.55C138.9 253.55 139.077 253.625 139.22 253.775C139.364 253.919 139.436 254.095 139.436 254.304C139.436 254.506 139.364 254.682 139.22 254.833C139.077 254.976 138.9 255.048 138.692 255.048ZM141.55 254.833C141.407 254.976 141.231 255.048 141.022 255.048C140.813 255.048 140.633 254.976 140.483 254.833C140.34 254.682 140.268 254.506 140.268 254.304C140.268 254.095 140.34 253.919 140.483 253.775C140.633 253.625 140.813 253.55 141.022 253.55C141.231 253.55 141.407 253.625 141.55 253.775C141.694 253.919 141.766 254.095 141.766 254.304C141.766 254.506 141.694 254.682 141.55 254.833ZM143.342 255.048C143.133 255.048 142.954 254.976 142.804 254.833C142.66 254.682 142.588 254.506 142.588 254.304C142.588 254.095 142.66 253.919 142.804 253.775C142.954 253.625 143.133 253.55 143.342 253.55C143.551 253.55 143.727 253.625 143.871 253.775C144.014 253.919 144.086 254.095 144.086 254.304C144.086 254.506 144.011 254.682 143.861 254.833C143.717 254.976 143.544 255.048 143.342 255.048Z" fill="#151D51"/>
<path fill-rule="evenodd" clip-rule="evenodd" d="M60.4833 243.938C61.892 243.938 63.034 242.796 63.034 241.387C63.034 239.979 61.892 238.837 60.4833 238.837C59.0745 238.837 57.9325 239.979 57.9325 241.387C57.9325 242.796 59.0745 243.938 60.4833 243.938Z" fill="#6C1DA0"/>
<path fill-rule="evenodd" clip-rule="evenodd" d="M67.1792 249.996C68.588 249.996 69.73 248.854 69.73 247.445C69.73 246.037 68.588 244.895 67.1792 244.895C65.7705 244.895 64.6284 246.037 64.6284 247.445C64.6284 248.854 65.7705 249.996 67.1792 249.996Z" fill="#483FDD"/>
<path fill-rule="evenodd" clip-rule="evenodd" d="M53.7876 249.996C55.1963 249.996 56.3383 248.854 56.3383 247.445C56.3383 246.037 55.1963 244.895 53.7876 244.895C52.3788 244.895 51.2368 246.037 51.2368 247.445C51.2368 248.854 52.3788 249.996 53.7876 249.996Z" fill="#5CD6C0"/>
<g opacity="0.5">
<rect x="174.16" y="219.126" width="126.73" height="54.3907" rx="5.43907" fill="white"/>
</g>
</g>
</g>
<defs>
<clipPath id="clip0_0_441">
<rect width="209" height="436" rx="14" fill="white"/>
</clipPath>
<clipPath id="clip1_0_441">
<rect x="-0.335938" y="-18" width="209.667" height="454" fill="white"/>
</clipPath>
<clipPath id="clip2_0_441">
<rect width="209.667" height="143.133" fill="white" transform="translate(-0.335693 -0.108398)"/>
</clipPath>
<clipPath id="clip3_0_441">
<rect width="173.884" height="41" fill="white" transform="translate(18 162)"/>
</clipPath>
</defs>
</svg>
